<?xml version="1.0" encoding="utf-8"?>
<!-- Generator: Adobe Illustrator 24.2.0, SVG Export Plug-In . SVG Version: 6.00 Build 0)  -->
<svg version="1.1" id="Capa_1" xmlns="http://www.w3.org/2000/svg" xmlns:xlink="http://www.w3.org/1999/xlink" x="0px" y="0px"
	 viewBox="0 0 24 24" style="enable-background:new 0 0 24 24;" xml:space="preserve">
<style type="text/css">
	.st0{fill:none;}
	.st1{fill:#FFFFFF;}
</style>
<path class="st0" d="M0,0h24v24H0V0z"/>
<path class="st1" d="M14.9,4.7h-4.7l2.4-2.4C12.6,2.3,14.9,4.7,14.9,4.7z M10.2,19.4h4.7l-2.3,2.3L10.2,19.4z M16.8,6.3l-4.5,11.5
	h1.8l0.9-2.4h5.1l0.9,2.4h1.8L18.4,6.3H16.8z M15.6,13.6l1.9-5.2l1.9,5.2H15.6z M5.1,16.1h6.1v1.6H2.6v-1.3l5.9-8.6H2.7V6.3H11v1.3
	C11,7.5,5.1,16.1,5.1,16.1z"/>
</svg>
